<svg width="186" height="48" viewBox="0 0 186 48" fill="none" xmlns="http://www.w3.org/2000/svg">
<rect x="138" width="48" height="48" rx="24" fill="#8F62D4"/>
<path d="M155.311 25.2018C156.943 27.2178 159.367 29.4258 160.279 30.1698C162.151 31.6579 163.783 32.6178 165.415 33.2178C166.087 33.4578 166.807 33.6739 167.527 33.6739C168.103 33.6739 168.655 33.5539 169.207 33.2178C169.855 32.8099 170.335 32.4258 170.767 31.9699L170.815 31.8979C171.103 31.6098 171.439 31.2258 171.583 30.7698C171.775 30.1458 171.559 29.4498 171.319 29.0178C170.671 27.9138 169.423 27.0738 169.039 26.8578C168.391 26.4498 167.503 26.0658 166.567 26.5458C166.183 26.7378 165.895 27.0018 165.607 27.2658C165.535 27.3378 165.439 27.4098 165.367 27.4818C165.319 27.5298 165.295 27.5538 165.247 27.5778C165.055 27.7458 164.959 27.8178 164.815 27.8418C164.623 27.8658 164.431 27.8418 164.215 27.7698C163.639 27.5538 163.159 27.1218 162.631 26.6418C161.335 25.4178 160.039 24.1458 158.815 22.8258C158.311 22.2978 157.903 21.8178 157.687 21.2418C157.615 21.0258 157.591 20.8098 157.615 20.6418C157.639 20.4978 157.711 20.4018 157.879 20.2098C157.903 20.1618 157.951 20.1378 157.975 20.0898C158.047 20.0178 158.119 19.9218 158.191 19.8498C158.455 19.5618 158.719 19.2738 158.911 18.8898C159.391 17.9538 159.007 17.0658 158.599 16.4178C158.383 16.0338 157.543 14.7858 156.439 14.1378C156.007 13.8978 155.311 13.6818 154.687 13.8738C154.231 14.0178 153.871 14.3778 153.559 14.6418L153.487 14.7138C153.055 15.1218 152.647 15.6258 152.239 16.2738C151.495 17.4978 151.831 18.8898 152.263 20.0658C152.863 21.7458 153.871 23.4258 155.311 25.2018Z" fill="white"/>
<path d="M169.849 21.5522C169.745 19.9898 169.082 18.5232 167.981 17.4211C166.883 16.3204 165.418 15.6559 163.856 15.5508C163.539 15.5292 163.299 15.2546 163.32 14.9371C163.342 14.6198 163.614 14.3793 163.934 14.4014C165.775 14.5252 167.502 15.3088 168.797 16.6072C170.094 17.9061 170.876 19.6348 170.999 21.4756C171.02 21.7929 170.779 22.0672 170.462 22.0884C170.449 22.0893 170.436 22.0898 170.424 22.0898C170.122 22.0898 169.869 21.8563 169.849 21.5522Z" fill="white"/>
<path d="M163.128 17.7393C163.15 17.4225 163.419 17.183 163.742 17.2036C164.902 17.2819 165.992 17.776 166.808 18.5944C167.625 19.4114 168.117 20.5008 168.195 21.6614C168.216 21.9787 167.976 22.2535 167.659 22.2746C167.646 22.2756 167.633 22.276 167.62 22.276C167.319 22.276 167.066 22.0425 167.046 21.7384C166.987 20.8562 166.613 20.0289 165.994 19.4088C165.373 18.7876 164.546 18.4128 163.664 18.3532C163.347 18.3319 163.107 18.0571 163.128 17.7393Z" fill="white"/>
<path d="M165.131 22.4438C165.118 22.4448 165.105 22.4452 165.093 22.4452C164.792 22.4452 164.538 22.2112 164.519 21.9067C164.506 21.7144 164.441 21.4351 164.204 21.1975C163.966 20.9594 163.685 20.8932 163.492 20.8802C163.174 20.8576 162.935 20.5826 162.957 20.2651C162.979 19.9476 163.251 19.71 163.572 19.7306C164.122 19.769 164.636 20.0006 165.019 20.3832C165.402 20.7672 165.632 21.2812 165.668 21.8316C165.689 22.1488 165.448 22.4232 165.131 22.4438Z" fill="white"/>
</svg>
